<svg width="162" height="78" viewBox="0 0 162 78" fill="none" xmlns="http://www.w3.org/2000/svg">
<path class="drum" id="drum1" data-sound="drumsound1.wav"  d="M35.95 38.5C35.95 40.8166 33.9597 42.929 30.7066 44.4652C27.4573 45.9996 22.9649 46.95 18 46.95C13.0351 46.95 8.54274 45.9996 5.29343 44.4652C2.04025 42.929 0.05 40.8166 0.05 38.5C0.05 36.1834 2.04025 34.071 5.29343 32.5348C8.54274 31.0004 13.0351 30.05 18 30.05C22.9649 30.05 27.4573 31.0004 30.7066 32.5348C33.9597 34.071 35.95 36.1834 35.95 38.5Z" fill="#EBDFD7" stroke="black" stroke-width="0.1"/>
<path class="drum" id="drum2" data-sound="drumsound2.wav" d="M71.95 21.5C71.95 23.8166 69.9597 25.929 66.7066 27.4652C63.4573 28.9996 58.9649 29.95 54 29.95C49.0351 29.95 44.5427 28.9996 41.2934 27.4652C38.0403 25.929 36.05 23.8166 36.05 21.5C36.05 19.1834 38.0403 17.071 41.2934 15.5348C44.5427 14.0004 49.0351 13.05 54 13.05C58.9649 13.05 63.4573 14.0004 66.7066 15.5348C69.9597 17.071 71.95 19.1834 71.95 21.5Z" fill="#EBDFD7" stroke="black" stroke-width="0.1"/>
<path class="drum" id="drum3" data-sound="drumsound3.wav" d="M119.95 21.5C119.95 23.8166 117.96 25.929 114.707 27.4652C111.457 28.9996 106.965 29.95 102 29.95C97.0351 29.95 92.5427 28.9996 89.2934 27.4652C86.0403 25.929 84.05 23.8166 84.05 21.5C84.05 19.1834 86.0403 17.071 89.2934 15.5348C92.5427 14.0004 97.0351 13.05 102 13.05C106.965 13.05 111.457 14.0004 114.707 15.5348C117.96 17.071 119.95 19.1834 119.95 21.5Z" fill="#EBDFD7" stroke="black" stroke-width="0.1"/>
<path class="drum" id="drum4" data-sound="drumsound4.wav" d="M161.95 38.5C161.95 40.8166 159.96 42.929 156.707 44.4652C153.457 45.9996 148.965 46.95 144 46.95C139.035 46.95 134.543 45.9996 131.293 44.4652C128.04 42.929 126.05 40.8166 126.05 38.5C126.05 36.1834 128.04 34.071 131.293 32.5348C134.543 31.0004 139.035 30.05 144 30.05C148.965 30.05 153.457 31.0004 156.707 32.5348C159.96 34.071 161.95 36.1834 161.95 38.5Z" fill="#EBDFD7" stroke="black" stroke-width="0.1"/>
<path class="drum" id="drum5" data-sound="drumsound5.wav" d="M138.95 62.5C138.95 66.7575 136.278 70.6188 131.943 73.4182C127.61 76.2171 121.619 77.95 115 77.95C108.381 77.95 102.39 76.2171 98.0566 73.4182C93.7221 70.6188 91.05 66.7575 91.05 62.5C91.05 58.2425 93.7221 54.3812 98.0566 51.5818C102.39 48.7829 108.381 47.05 115 47.05C121.619 47.05 127.61 48.7829 131.943 51.5818C136.278 54.3812 138.95 58.2425 138.95 62.5Z" fill="#EBDFD7" stroke="black" stroke-width="0.1"/>
<ellipse class="drum" id="drum6" data-sound="drumsound6.wav" cx="28.5" cy="6.5" rx="14.5" ry="6.5" fill="#DB9100"/>
<ellipse class="drum" id="drum7" data-sound="drumsound7.wav" cx="124.5" cy="6.5" rx="14.5" ry="6.5" fill="#DB9100"/>
</svg>
